M48
; DRILL file {KiCad 7.0.8} date Wed Jun 12 14:09:03 2024
; FORMAT={-:-/ absolute / inch / decimal}
; #@! TF.CreationDate,2024-06-12T14:09:03-04:00
; #@! TF.GenerationSoftware,Kicad,Pcbnew,7.0.8
; #@! TF.FileFunction,Plated,1,2,PTH
FMAT,2
INCH
; #@! TA.AperFunction,Plated,PTH,ViaDrill
T1C0.0157
; #@! TA.AperFunction,Plated,PTH,ComponentDrill
T2C0.0394
%
G90
G05
T1
X0.9449Y-1.8181
X1.1417Y-1.7006
X1.1417Y-1.8504
X1.1811Y-1.6535
X1.2795Y-1.6535
X1.3189Y-1.9488
X1.3484Y-1.8504
X1.3583Y-1.9222
X1.378Y-1.6535
X1.4331Y-1.7704
X1.437Y-1.9212
X1.4469Y-1.8602
X1.4567Y-1.6535
X1.5179Y-1.7218
X1.5354Y-1.9488
X1.5945Y-1.9094
X1.6142Y-1.6535
X1.6142Y-1.6929
X1.6929Y-1.7717
X1.6929Y-1.9291
X1.752Y-1.6339
X1.7913Y-1.9291
X1.8169Y-1.6397
X1.8504Y-1.9291
X1.8701Y-1.782
X1.8898Y-1.7126
X1.8898Y-1.8504
X1.9094Y-1.752
X1.9094Y-1.811
T2
X1.063Y-2.0276
X1.163Y-2.0276
X1.263Y-2.0276
X1.363Y-2.0276
X1.463Y-2.0276
X1.563Y-2.0276
X1.663Y-2.0276
T0
M30
