%TF.GenerationSoftware,KiCad,Pcbnew,7.0.8*%
%TF.CreationDate,2024-06-12T14:08:57-04:00*%
%TF.ProjectId,Discrete_Opamp,44697363-7265-4746-955f-4f70616d702e,rev?*%
%TF.SameCoordinates,Original*%
%TF.FileFunction,Copper,L1,Top*%
%TF.FilePolarity,Positive*%
%FSLAX46Y46*%
G04 Gerber Fmt 4.6, Leading zero omitted, Abs format (unit mm)*
G04 Created by KiCad (PCBNEW 7.0.8) date 2024-06-12 14:08:57*
%MOMM*%
%LPD*%
G01*
G04 APERTURE LIST*
G04 Aperture macros list*
%AMRoundRect*
0 Rectangle with rounded corners*
0 $1 Rounding radius*
0 $2 $3 $4 $5 $6 $7 $8 $9 X,Y pos of 4 corners*
0 Add a 4 corners polygon primitive as box body*
4,1,4,$2,$3,$4,$5,$6,$7,$8,$9,$2,$3,0*
0 Add four circle primitives for the rounded corners*
1,1,$1+$1,$2,$3*
1,1,$1+$1,$4,$5*
1,1,$1+$1,$6,$7*
1,1,$1+$1,$8,$9*
0 Add four rect primitives between the rounded corners*
20,1,$1+$1,$2,$3,$4,$5,0*
20,1,$1+$1,$4,$5,$6,$7,0*
20,1,$1+$1,$6,$7,$8,$9,0*
20,1,$1+$1,$8,$9,$2,$3,0*%
G04 Aperture macros list end*
%TA.AperFunction,SMDPad,CuDef*%
%ADD10R,0.350000X0.500000*%
%TD*%
%TA.AperFunction,SMDPad,CuDef*%
%ADD11R,0.900000X0.440000*%
%TD*%
%TA.AperFunction,SMDPad,CuDef*%
%ADD12R,0.300000X0.340000*%
%TD*%
%TA.AperFunction,SMDPad,CuDef*%
%ADD13RoundRect,0.200000X-0.275000X0.200000X-0.275000X-0.200000X0.275000X-0.200000X0.275000X0.200000X0*%
%TD*%
%TA.AperFunction,ComponentPad*%
%ADD14R,1.700000X1.700000*%
%TD*%
%TA.AperFunction,ComponentPad*%
%ADD15O,1.700000X1.700000*%
%TD*%
%TA.AperFunction,SMDPad,CuDef*%
%ADD16RoundRect,0.150000X0.825000X0.150000X-0.825000X0.150000X-0.825000X-0.150000X0.825000X-0.150000X0*%
%TD*%
%TA.AperFunction,SMDPad,CuDef*%
%ADD17RoundRect,0.050000X0.150000X0.075000X-0.150000X0.075000X-0.150000X-0.075000X0.150000X-0.075000X0*%
%TD*%
%TA.AperFunction,SMDPad,CuDef*%
%ADD18RoundRect,0.050000X0.150000X0.300000X-0.150000X0.300000X-0.150000X-0.300000X0.150000X-0.300000X0*%
%TD*%
%TA.AperFunction,SMDPad,CuDef*%
%ADD19RoundRect,0.050000X-0.075000X0.150000X-0.075000X-0.150000X0.075000X-0.150000X0.075000X0.150000X0*%
%TD*%
%TA.AperFunction,SMDPad,CuDef*%
%ADD20RoundRect,0.050000X-0.300000X0.150000X-0.300000X-0.150000X0.300000X-0.150000X0.300000X0.150000X0*%
%TD*%
%TA.AperFunction,SMDPad,CuDef*%
%ADD21RoundRect,0.050000X0.075000X-0.150000X0.075000X0.150000X-0.075000X0.150000X-0.075000X-0.150000X0*%
%TD*%
%TA.AperFunction,SMDPad,CuDef*%
%ADD22RoundRect,0.050000X0.300000X-0.150000X0.300000X0.150000X-0.300000X0.150000X-0.300000X-0.150000X0*%
%TD*%
%TA.AperFunction,ViaPad*%
%ADD23C,0.800000*%
%TD*%
%TA.AperFunction,Conductor*%
%ADD24C,0.250000*%
%TD*%
%TA.AperFunction,Conductor*%
%ADD25C,0.350000*%
%TD*%
%TA.AperFunction,Conductor*%
%ADD26C,0.200000*%
%TD*%
G04 APERTURE END LIST*
D10*
%TO.P,Q12,1,G*%
%TO.N,Vb2*%
X42175000Y-48190000D03*
%TO.P,Q12,2,S*%
%TO.N,VSS*%
X42825000Y-48190000D03*
D11*
%TO.P,Q12,3,D*%
%TO.N,Net-(Q12-D)*%
X42500000Y-47500000D03*
D12*
X42500000Y-47110000D03*
%TD*%
D13*
%TO.P,R3,1*%
%TO.N,VDD*%
X40000000Y-43175000D03*
%TO.P,R3,2*%
%TO.N,Vamp*%
X40000000Y-44825000D03*
%TD*%
D10*
%TO.P,Q7,1,G*%
%TO.N,V+*%
X37825000Y-45000000D03*
%TO.P,Q7,2,S*%
%TO.N,Net-(Q4-D)*%
X37175000Y-45000000D03*
D11*
%TO.P,Q7,3,D*%
%TO.N,Vdiff*%
X37500000Y-45690000D03*
D12*
X37500000Y-46080000D03*
%TD*%
D14*
%TO.P,J1,1,Pin_1*%
%TO.N,VDD*%
X42240000Y-51500000D03*
D15*
%TO.P,J1,2,Pin_2*%
%TO.N,V+*%
X39700000Y-51500000D03*
%TO.P,J1,3,Pin_3*%
%TO.N,V-*%
X37160000Y-51500000D03*
%TO.P,J1,4,Pin_4*%
%TO.N,Vout*%
X34620000Y-51500000D03*
%TO.P,J1,5,Pin_5*%
%TO.N,IS+*%
X32080000Y-51500000D03*
%TO.P,J1,6,Pin_6*%
%TO.N,IS-*%
X29540000Y-51500000D03*
%TO.P,J1,7,Pin_7*%
%TO.N,VSS*%
X27000000Y-51500000D03*
%TD*%
D10*
%TO.P,Q5,1,G*%
%TO.N,Vb1*%
X37825000Y-43000000D03*
%TO.P,Q5,2,S*%
%TO.N,VDD*%
X37175000Y-43000000D03*
D11*
%TO.P,Q5,3,D*%
%TO.N,Net-(Q4-D)*%
X37500000Y-43690000D03*
D12*
X37500000Y-44080000D03*
%TD*%
D10*
%TO.P,Q1,1,G*%
%TO.N,Vb1*%
X30825000Y-42920000D03*
%TO.P,Q1,2,S*%
%TO.N,VDD*%
X30175000Y-42920000D03*
D11*
%TO.P,Q1,3,D*%
%TO.N,Vb1*%
X30500000Y-43610000D03*
D12*
X30500000Y-44000000D03*
%TD*%
D16*
%TO.P,U1,1*%
%TO.N,VSS*%
X27475000Y-46905000D03*
%TO.P,U1,2*%
%TO.N,IS-*%
X27475000Y-45635000D03*
%TO.P,U1,3*%
%TO.N,Net-(U1-Pad3)*%
X27475000Y-44365000D03*
%TO.P,U1,4*%
%TO.N,VDD*%
X27475000Y-43095000D03*
%TO.P,U1,5*%
%TO.N,Vb1*%
X22525000Y-43095000D03*
%TO.P,U1,6,S*%
%TO.N,VSS*%
X22525000Y-44365000D03*
%TO.P,U1,7*%
%TO.N,IS+*%
X22525000Y-45635000D03*
%TO.P,U1,8*%
%TO.N,Net-(U1-Pad3)*%
X22525000Y-46905000D03*
%TD*%
D10*
%TO.P,Q3,1,G*%
%TO.N,Vb1*%
X33325000Y-43000000D03*
%TO.P,Q3,2,S*%
%TO.N,VDD*%
X32675000Y-43000000D03*
D11*
%TO.P,Q3,3,D*%
%TO.N,Vb2*%
X33000000Y-43690000D03*
D12*
X33000000Y-44080000D03*
%TD*%
D13*
%TO.P,R2,1*%
%TO.N,Vdiff*%
X37500000Y-47175000D03*
%TO.P,R2,2*%
%TO.N,VSS*%
X37500000Y-48825000D03*
%TD*%
D10*
%TO.P,Q2,1,G*%
%TO.N,Vb2*%
X32675000Y-47500000D03*
%TO.P,Q2,2,S*%
%TO.N,VSS*%
X33325000Y-47500000D03*
D11*
%TO.P,Q2,3,D*%
%TO.N,Vb2*%
X33000000Y-46810000D03*
D12*
X33000000Y-46420000D03*
%TD*%
D10*
%TO.P,Q18,1,G*%
%TO.N,Net-(Q13-C)*%
X46925000Y-42310000D03*
%TO.P,Q18,2,S*%
%TO.N,VDD*%
X46275000Y-42310000D03*
D11*
%TO.P,Q18,3,D*%
%TO.N,Vout*%
X46600000Y-43000000D03*
D12*
X46600000Y-43390000D03*
%TD*%
D13*
%TO.P,R1,1*%
%TO.N,Net-(Q6-D)*%
X35500000Y-47175000D03*
%TO.P,R1,2*%
%TO.N,VSS*%
X35500000Y-48825000D03*
%TD*%
D17*
%TO.P,Q9,1,B*%
%TO.N,Vamp*%
X42850000Y-46225000D03*
%TO.P,Q9,2,E*%
%TO.N,Net-(Q12-D)*%
X42850000Y-45775000D03*
D18*
%TO.P,Q9,3,C*%
%TO.N,Vamp*%
X42150000Y-46000000D03*
%TD*%
D19*
%TO.P,Q14,1,B*%
%TO.N,Net-(Q12-D)*%
X46725000Y-45150000D03*
%TO.P,Q14,2,E*%
%TO.N,Vout*%
X46275000Y-45150000D03*
D20*
%TO.P,Q14,3,C*%
%TO.N,Net-(Q14-C)*%
X46500000Y-45850000D03*
%TD*%
D10*
%TO.P,Q15,1,G*%
%TO.N,Net-(Q14-C)*%
X44675000Y-48000000D03*
%TO.P,Q15,2,S*%
%TO.N,VSS*%
X45325000Y-48000000D03*
D11*
%TO.P,Q15,3,D*%
%TO.N,Net-(Q14-C)*%
X45000000Y-47310000D03*
D12*
X45000000Y-46920000D03*
%TD*%
D10*
%TO.P,Q4,1,G*%
%TO.N,Vb1*%
X35825000Y-43000000D03*
%TO.P,Q4,2,S*%
%TO.N,VDD*%
X35175000Y-43000000D03*
D11*
%TO.P,Q4,3,D*%
%TO.N,Net-(Q4-D)*%
X35500000Y-43690000D03*
D12*
X35500000Y-44080000D03*
%TD*%
D17*
%TO.P,Q10,1,B*%
%TO.N,Vamp*%
X42850000Y-44225000D03*
%TO.P,Q10,2,E*%
%TO.N,Net-(Q10-E)*%
X42850000Y-43775000D03*
D18*
%TO.P,Q10,3,C*%
%TO.N,Vamp*%
X42150000Y-44000000D03*
%TD*%
D10*
%TO.P,Q11,1,G*%
%TO.N,Vb1*%
X42825000Y-41810000D03*
%TO.P,Q11,2,S*%
%TO.N,VDD*%
X42175000Y-41810000D03*
D11*
%TO.P,Q11,3,D*%
%TO.N,Net-(Q10-E)*%
X42500000Y-42500000D03*
D12*
X42500000Y-42890000D03*
%TD*%
D10*
%TO.P,Q8,1,G*%
%TO.N,Vdiff*%
X39675000Y-47500000D03*
%TO.P,Q8,2,S*%
%TO.N,VSS*%
X40325000Y-47500000D03*
D11*
%TO.P,Q8,3,D*%
%TO.N,Vamp*%
X40000000Y-46810000D03*
D12*
X40000000Y-46420000D03*
%TD*%
D10*
%TO.P,Q6,1,G*%
%TO.N,V-*%
X35825000Y-45000000D03*
%TO.P,Q6,2,S*%
%TO.N,Net-(Q4-D)*%
X35175000Y-45000000D03*
D11*
%TO.P,Q6,3,D*%
%TO.N,Net-(Q6-D)*%
X35500000Y-45690000D03*
D12*
X35500000Y-46080000D03*
%TD*%
D10*
%TO.P,Q17,1,G*%
%TO.N,Net-(Q13-C)*%
X45325000Y-42310000D03*
%TO.P,Q17,2,S*%
%TO.N,VDD*%
X44675000Y-42310000D03*
D11*
%TO.P,Q17,3,D*%
%TO.N,Net-(Q13-C)*%
X45000000Y-43000000D03*
D12*
X45000000Y-43390000D03*
%TD*%
D21*
%TO.P,Q13,1,B*%
%TO.N,Net-(Q10-E)*%
X44775000Y-44850000D03*
%TO.P,Q13,2,E*%
%TO.N,Vout*%
X45225000Y-44850000D03*
D22*
%TO.P,Q13,3,C*%
%TO.N,Net-(Q13-C)*%
X45000000Y-44150000D03*
%TD*%
D10*
%TO.P,Q16,1,G*%
%TO.N,Net-(Q14-C)*%
X46275000Y-48000000D03*
%TO.P,Q16,2,S*%
%TO.N,VSS*%
X46925000Y-48000000D03*
D11*
%TO.P,Q16,3,D*%
%TO.N,Vout*%
X46600000Y-47310000D03*
D12*
X46600000Y-46920000D03*
%TD*%
D23*
%TO.N,VSS*%
X36500000Y-48799500D03*
X47000000Y-49000000D03*
X24000000Y-46180500D03*
X39000000Y-49500000D03*
X40500000Y-48500000D03*
X29000000Y-47000000D03*
X45500000Y-49000000D03*
X43000000Y-49000000D03*
X34250000Y-47000000D03*
X34500000Y-48825000D03*
X33500000Y-49500000D03*
%TO.N,VDD*%
X37000000Y-42000000D03*
X30000000Y-42000000D03*
X32500000Y-42000000D03*
X29000000Y-43194500D03*
X35000000Y-42000000D03*
X41000000Y-43000000D03*
X44500000Y-41500000D03*
X46150201Y-41649500D03*
X41000000Y-42000000D03*
%TO.N,V-*%
X36400500Y-44969274D03*
%TO.N,V+*%
X38555685Y-43734287D03*
%TO.N,Vdiff*%
X36750000Y-47250000D03*
%TO.N,Net-(Q12-D)*%
X43000000Y-45000000D03*
X47500000Y-45262054D03*
%TO.N,Vout*%
X48000000Y-43500000D03*
X48000000Y-47000000D03*
X48500000Y-44500000D03*
X48500000Y-46000000D03*
%TD*%
D24*
%TO.N,Vb1*%
X24385000Y-41235000D02*
X30800000Y-41235000D01*
X35825000Y-41260000D02*
X35800000Y-41235000D01*
X33300000Y-41235000D02*
X35800000Y-41235000D01*
X30825000Y-42920000D02*
X30825000Y-43285000D01*
X30825000Y-43285000D02*
X30500000Y-43610000D01*
X33325000Y-43000000D02*
X33325000Y-41260000D01*
X30825000Y-41260000D02*
X30800000Y-41235000D01*
X37800000Y-41235000D02*
X42500000Y-41235000D01*
X30800000Y-41235000D02*
X33300000Y-41235000D01*
X35825000Y-43000000D02*
X35825000Y-41260000D01*
X37825000Y-43000000D02*
X37825000Y-41260000D01*
X33325000Y-41260000D02*
X33300000Y-41235000D01*
X35800000Y-41235000D02*
X37800000Y-41235000D01*
X37825000Y-41260000D02*
X37800000Y-41235000D01*
X42825000Y-41560000D02*
X42825000Y-41810000D01*
X22525000Y-43095000D02*
X24385000Y-41235000D01*
X30825000Y-42920000D02*
X30825000Y-41260000D01*
X42500000Y-41235000D02*
X42825000Y-41560000D01*
%TO.N,VSS*%
X24000000Y-46180500D02*
X24000000Y-45463248D01*
X24000000Y-45463248D02*
X22901752Y-44365000D01*
X45325000Y-48000000D02*
X45325000Y-48825000D01*
X40325000Y-48325000D02*
X40500000Y-48500000D01*
D25*
X34500000Y-48825000D02*
X34175000Y-48825000D01*
X37500000Y-48825000D02*
X38325000Y-48825000D01*
D24*
X45311210Y-48013790D02*
X45325000Y-48000000D01*
D25*
X34175000Y-48825000D02*
X33500000Y-49500000D01*
X37500000Y-48825000D02*
X36525500Y-48825000D01*
D24*
X45320318Y-48004682D02*
X45325000Y-48000000D01*
X28905000Y-46905000D02*
X29000000Y-47000000D01*
D25*
X38325000Y-48825000D02*
X39000000Y-49500000D01*
D24*
X28450000Y-46905000D02*
X27475000Y-46905000D01*
X33325000Y-47500000D02*
X33750000Y-47500000D01*
D25*
X36474500Y-48825000D02*
X36500000Y-48799500D01*
D24*
X40325000Y-47500000D02*
X40325000Y-48325000D01*
X42825000Y-48190000D02*
X42825000Y-48825000D01*
D25*
X34500000Y-48825000D02*
X35500000Y-48825000D01*
X36525500Y-48825000D02*
X36500000Y-48799500D01*
X35500000Y-48825000D02*
X36474500Y-48825000D01*
D24*
X45325000Y-48825000D02*
X45500000Y-49000000D01*
X22901752Y-44365000D02*
X22525000Y-44365000D01*
X33750000Y-47500000D02*
X34250000Y-47000000D01*
X46925000Y-48925000D02*
X47000000Y-49000000D01*
X42825000Y-48825000D02*
X43000000Y-49000000D01*
X27475000Y-46905000D02*
X28905000Y-46905000D01*
X46925000Y-48000000D02*
X46925000Y-48925000D01*
%TO.N,Net-(U1-Pad3)*%
X22525000Y-46905000D02*
X24558248Y-46905000D01*
X27098248Y-44365000D02*
X27475000Y-44365000D01*
X24558248Y-46905000D02*
X27098248Y-44365000D01*
%TO.N,VDD*%
X37000000Y-42000000D02*
X37175000Y-42175000D01*
X44675000Y-41675000D02*
X44500000Y-41500000D01*
X28900500Y-43095000D02*
X29000000Y-43194500D01*
X35000000Y-42000000D02*
X35175000Y-42175000D01*
X44675000Y-42310000D02*
X44675000Y-41675000D01*
X40825000Y-43175000D02*
X41000000Y-43000000D01*
X30175000Y-42175000D02*
X30175000Y-42920000D01*
X32500000Y-42000000D02*
X32675000Y-42175000D01*
X30000000Y-42000000D02*
X30175000Y-42175000D01*
X42175000Y-41810000D02*
X41190000Y-41810000D01*
X46275000Y-42310000D02*
X46275000Y-41774299D01*
X27475000Y-43095000D02*
X28900500Y-43095000D01*
X37175000Y-42175000D02*
X37175000Y-43000000D01*
X46275000Y-41774299D02*
X46150201Y-41649500D01*
X40000000Y-43175000D02*
X40825000Y-43175000D01*
X35175000Y-42175000D02*
X35175000Y-43000000D01*
X32675000Y-42175000D02*
X32675000Y-43000000D01*
X41190000Y-41810000D02*
X41000000Y-42000000D01*
%TO.N,Vb2*%
X41140000Y-49225000D02*
X42175000Y-48190000D01*
X39049695Y-48075000D02*
X40199695Y-49225000D01*
X32675000Y-47135000D02*
X33000000Y-46810000D01*
X32675000Y-47500000D02*
X32675000Y-47750000D01*
X33000000Y-48075000D02*
X39049695Y-48075000D01*
X32675000Y-47750000D02*
X33000000Y-48075000D01*
X40199695Y-49225000D02*
X41140000Y-49225000D01*
X32675000Y-47500000D02*
X32675000Y-47135000D01*
X33000000Y-44080000D02*
X33000000Y-46420000D01*
%TO.N,Net-(Q4-D)*%
X37175000Y-44405000D02*
X37175000Y-45000000D01*
X35175000Y-44405000D02*
X35175000Y-45000000D01*
X35500000Y-43690000D02*
X37500000Y-43690000D01*
X37500000Y-44080000D02*
X37175000Y-44405000D01*
X35500000Y-44080000D02*
X35175000Y-44405000D01*
D26*
%TO.N,V-*%
X35855726Y-44969274D02*
X35825000Y-45000000D01*
X36400500Y-44969274D02*
X35855726Y-44969274D01*
D24*
%TO.N,Net-(Q6-D)*%
X35500000Y-46080000D02*
X35500000Y-47175000D01*
D26*
%TO.N,V+*%
X38555685Y-43734287D02*
X38555685Y-44269315D01*
X38555685Y-44269315D02*
X37825000Y-45000000D01*
D24*
%TO.N,Vdiff*%
X37425000Y-47250000D02*
X37500000Y-47175000D01*
X36750000Y-47250000D02*
X37425000Y-47250000D01*
X37500000Y-47175000D02*
X37825000Y-47500000D01*
X37825000Y-47500000D02*
X39675000Y-47500000D01*
X37500000Y-46080000D02*
X37500000Y-47175000D01*
%TO.N,Vamp*%
X42850000Y-46225000D02*
X42375000Y-46225000D01*
X40000000Y-46420000D02*
X40000000Y-46000000D01*
X42150000Y-46000000D02*
X40000000Y-46000000D01*
X42150000Y-44000000D02*
X42150000Y-46000000D01*
X40000000Y-46000000D02*
X40000000Y-44825000D01*
X42375000Y-44225000D02*
X42150000Y-44000000D01*
X42850000Y-44225000D02*
X42375000Y-44225000D01*
X42375000Y-46225000D02*
X42150000Y-46000000D01*
%TO.N,Net-(Q12-D)*%
X47387946Y-45150000D02*
X46725000Y-45150000D01*
X42765000Y-46675000D02*
X43155330Y-46675000D01*
X43375000Y-45994670D02*
X43155330Y-45775000D01*
X42500000Y-47110000D02*
X42500000Y-46940000D01*
X43000000Y-45000000D02*
X43000000Y-45625000D01*
X43155330Y-46675000D02*
X43375000Y-46455330D01*
X47500000Y-45262054D02*
X47387946Y-45150000D01*
X43155330Y-45775000D02*
X42850000Y-45775000D01*
X43375000Y-46455330D02*
X43375000Y-45994670D01*
X43000000Y-45625000D02*
X42850000Y-45775000D01*
X42500000Y-46940000D02*
X42765000Y-46675000D01*
%TO.N,Net-(Q10-E)*%
X42500000Y-43369670D02*
X42850000Y-43719670D01*
X44775000Y-44850000D02*
X44650000Y-44850000D01*
X43575000Y-43775000D02*
X42850000Y-43775000D01*
X42850000Y-43719670D02*
X42850000Y-43775000D01*
X42500000Y-43080000D02*
X42500000Y-43369670D01*
X44650000Y-44850000D02*
X43575000Y-43775000D01*
%TO.N,Net-(Q13-C)*%
X45325000Y-41425000D02*
X45825500Y-40924500D01*
X45325000Y-42310000D02*
X45325000Y-41425000D01*
X45825500Y-40924500D02*
X46499500Y-40924500D01*
X45000000Y-43390000D02*
X45000000Y-44150000D01*
X46499500Y-40924500D02*
X46925000Y-41350000D01*
X46925000Y-41350000D02*
X46925000Y-42310000D01*
%TO.N,Vout*%
X45225000Y-44850000D02*
X45975000Y-44850000D01*
D25*
X36120000Y-50000000D02*
X38403984Y-50000000D01*
X38678984Y-50275000D02*
X46975000Y-50275000D01*
X46975000Y-50275000D02*
X48000000Y-49250000D01*
X34620000Y-51500000D02*
X36120000Y-50000000D01*
X38403984Y-50000000D02*
X38678984Y-50275000D01*
D24*
X45975000Y-44850000D02*
X46275000Y-45150000D01*
D25*
X48000000Y-49250000D02*
X48000000Y-47000000D01*
D24*
%TO.N,Net-(Q14-C)*%
X45800305Y-49725000D02*
X45199695Y-49725000D01*
X45199695Y-49725000D02*
X44675000Y-49200305D01*
X46275000Y-48000000D02*
X46275000Y-49250305D01*
X45650000Y-45850000D02*
X46500000Y-45850000D01*
X44675000Y-49200305D02*
X44675000Y-48000000D01*
X45000000Y-46500000D02*
X45650000Y-45850000D01*
X46275000Y-49250305D02*
X45800305Y-49725000D01*
X45000000Y-46920000D02*
X45000000Y-46500000D01*
D26*
%TO.N,IS-*%
X29540000Y-51500000D02*
X30698135Y-52658135D01*
X30698135Y-52658135D02*
X32560367Y-52658135D01*
X33230000Y-50240050D02*
X28624950Y-45635000D01*
X28624950Y-45635000D02*
X27475000Y-45635000D01*
X32560367Y-52658135D02*
X33230000Y-51988502D01*
X33230000Y-51988502D02*
X33230000Y-50240050D01*
%TO.N,IS+*%
X21000000Y-46185000D02*
X21550000Y-45635000D01*
X28085000Y-47505000D02*
X21513604Y-47505000D01*
X21000000Y-46991396D02*
X21000000Y-46185000D01*
X32080000Y-51500000D02*
X28085000Y-47505000D01*
X21513604Y-47505000D02*
X21000000Y-46991396D01*
X21550000Y-45635000D02*
X22525000Y-45635000D01*
%TD*%
%TA.AperFunction,Conductor*%
%TO.N,Vout*%
G36*
X49642539Y-42519685D02*
G01*
X49688294Y-42572489D01*
X49699500Y-42624000D01*
X49699500Y-47376000D01*
X49679815Y-47443039D01*
X49627011Y-47488794D01*
X49575500Y-47500000D01*
X47600124Y-47500000D01*
X47533085Y-47480315D01*
X47500859Y-47450313D01*
X47457546Y-47392454D01*
X47434709Y-47375358D01*
X47342335Y-47306206D01*
X47342328Y-47306202D01*
X47207486Y-47255910D01*
X47207485Y-47255909D01*
X47207483Y-47255909D01*
X47147873Y-47249500D01*
X47147863Y-47249500D01*
X46702129Y-47249500D01*
X46702123Y-47249501D01*
X46642520Y-47255908D01*
X46634974Y-47257692D01*
X46634628Y-47256230D01*
X46573622Y-47260584D01*
X46558600Y-47256172D01*
X46557482Y-47255908D01*
X46497882Y-47249501D01*
X46497873Y-47249500D01*
X46497863Y-47249500D01*
X46074499Y-47249500D01*
X46007460Y-47229815D01*
X45961705Y-47177011D01*
X45950499Y-47125500D01*
X45950499Y-47042129D01*
X45950498Y-47042123D01*
X45944091Y-46982516D01*
X45893797Y-46847671D01*
X45893795Y-46847668D01*
X45807546Y-46732454D01*
X45807543Y-46732452D01*
X45805404Y-46729594D01*
X45780986Y-46664130D01*
X45795837Y-46595856D01*
X45816986Y-46567603D01*
X45850478Y-46534111D01*
X45911802Y-46500628D01*
X45981493Y-46505614D01*
X45983648Y-46506441D01*
X46030873Y-46525064D01*
X46068436Y-46539877D01*
X46156898Y-46550500D01*
X46156903Y-46550500D01*
X46843097Y-46550500D01*
X46843102Y-46550500D01*
X46931564Y-46539877D01*
X47072342Y-46484361D01*
X47192922Y-46392922D01*
X47284361Y-46272342D01*
X47296695Y-46241064D01*
X47339601Y-46185920D01*
X47405508Y-46162727D01*
X47412050Y-46162554D01*
X47594644Y-46162554D01*
X47594646Y-46162554D01*
X47779803Y-46123198D01*
X47952730Y-46046205D01*
X48105871Y-45934942D01*
X48232533Y-45794270D01*
X48327179Y-45630338D01*
X48385674Y-45450310D01*
X48405460Y-45262054D01*
X48385674Y-45073798D01*
X48327179Y-44893770D01*
X48232533Y-44729838D01*
X48105871Y-44589166D01*
X48105870Y-44589165D01*
X47952734Y-44477905D01*
X47952729Y-44477902D01*
X47779807Y-44400911D01*
X47779802Y-44400909D01*
X47634001Y-44369919D01*
X47594646Y-44361554D01*
X47405354Y-44361554D01*
X47372897Y-44368452D01*
X47220197Y-44400909D01*
X47220192Y-44400911D01*
X47061628Y-44471510D01*
X46992378Y-44480795D01*
X46965702Y-44473585D01*
X46931565Y-44460123D01*
X46916820Y-44458352D01*
X46843102Y-44449500D01*
X46606898Y-44449500D01*
X46567853Y-44454188D01*
X46518438Y-44460122D01*
X46377656Y-44515639D01*
X46257077Y-44607077D01*
X46165639Y-44727656D01*
X46110122Y-44868438D01*
X46107080Y-44893776D01*
X46099500Y-44956898D01*
X46099500Y-44956903D01*
X46099500Y-45063478D01*
X46079815Y-45130517D01*
X46027011Y-45176272D01*
X46020991Y-45178832D01*
X45927112Y-45215854D01*
X45881621Y-45224500D01*
X45732743Y-45224500D01*
X45717122Y-45222775D01*
X45717096Y-45223061D01*
X45709334Y-45222327D01*
X45709333Y-45222327D01*
X45640186Y-45224500D01*
X45610649Y-45224500D01*
X45603766Y-45225369D01*
X45597949Y-45225826D01*
X45551373Y-45227290D01*
X45543670Y-45228511D01*
X45543435Y-45227029D01*
X45482312Y-45226848D01*
X45423646Y-45188899D01*
X45394810Y-45125258D01*
X45394485Y-45093190D01*
X45400500Y-45043102D01*
X45400500Y-44936520D01*
X45420185Y-44869481D01*
X45472989Y-44823726D01*
X45478971Y-44821181D01*
X45572342Y-44784361D01*
X45692922Y-44692922D01*
X45784361Y-44572342D01*
X45839877Y-44431564D01*
X45850500Y-44343102D01*
X45850500Y-43956898D01*
X45839877Y-43868436D01*
X45784361Y-43727658D01*
X45784360Y-43727657D01*
X45781249Y-43719767D01*
X45782652Y-43719213D01*
X45769067Y-43660290D01*
X45792670Y-43594528D01*
X45805180Y-43579911D01*
X45807538Y-43577551D01*
X45807546Y-43577546D01*
X45893796Y-43462331D01*
X45944091Y-43327483D01*
X45950500Y-43267873D01*
X45950499Y-43184497D01*
X45970183Y-43117461D01*
X46022986Y-43071705D01*
X46074494Y-43060499D01*
X46497872Y-43060499D01*
X46557483Y-43054091D01*
X46557485Y-43054090D01*
X46557487Y-43054090D01*
X46565031Y-43052308D01*
X46565377Y-43053775D01*
X46626342Y-43049408D01*
X46641378Y-43053822D01*
X46642511Y-43054089D01*
X46642517Y-43054091D01*
X46702127Y-43060500D01*
X47147872Y-43060499D01*
X47207483Y-43054091D01*
X47342331Y-43003796D01*
X47457546Y-42917546D01*
X47543796Y-42802331D01*
X47594091Y-42667483D01*
X47600191Y-42610741D01*
X47626928Y-42546194D01*
X47684320Y-42506346D01*
X47723480Y-42500000D01*
X49575500Y-42500000D01*
X49642539Y-42519685D01*
G37*
%TD.AperFunction*%
%TD*%
M02*
